<svg width="60" height="60" viewBox="0 0 60 60" fill="none" xmlns="http://www.w3.org/2000/svg">
<circle cx="30" cy="30" r="30" fill="#330594"/>
<path d="M30.172 26.078C29.6867 26.0607 29.2967 25.9133 29.002 25.636C28.7073 25.3587 28.56 24.9687 28.56 24.466C28.5773 23.9287 28.7593 23.4953 29.106 23.166C29.4527 22.8193 29.8947 22.6547 30.432 22.672C30.9347 22.6893 31.3247 22.8367 31.602 23.114C31.8967 23.3913 32.0353 23.7813 32.018 24.284C32.0007 24.804 31.8273 25.2373 31.498 25.584C31.1687 25.9133 30.7267 26.078 30.172 26.078ZM30.198 39.26C29.678 39.26 29.2707 39.1213 28.976 38.844C28.6813 38.5493 28.534 38.0553 28.534 37.362C28.534 36.9633 28.5687 36.5733 28.638 36.192C28.7247 35.8107 28.82 35.438 28.924 35.074C29.0453 34.6927 29.1407 34.3027 29.21 33.904C29.2967 33.5053 29.34 33.0807 29.34 32.63C29.34 32.318 29.2967 32.0233 29.21 31.746C29.1233 31.4513 28.9327 31.2347 28.638 31.096C28.4127 30.9747 28.2133 30.8533 28.04 30.732C27.884 30.5933 27.806 30.42 27.806 30.212C27.806 29.9693 27.9187 29.7093 28.144 29.432C28.3693 29.1547 28.664 28.9207 29.028 28.73C29.4093 28.522 29.7993 28.418 30.198 28.418C30.6313 28.418 30.9433 28.5307 31.134 28.756C31.342 28.9813 31.4807 29.2673 31.55 29.614C31.6193 29.9607 31.654 30.316 31.654 30.68C31.654 31.2347 31.6107 31.7807 31.524 32.318C31.4373 32.838 31.3507 33.3233 31.264 33.774C31.1947 34.1033 31.1427 34.4067 31.108 34.684C31.0733 34.9613 31.056 35.2213 31.056 35.464C31.056 35.8973 31.16 36.2267 31.368 36.452C31.576 36.66 31.8707 36.8593 32.252 37.05C32.408 37.1367 32.486 37.2667 32.486 37.44C32.486 37.5787 32.4167 37.7953 32.278 38.09C32.1393 38.3847 31.8967 38.6533 31.55 38.896C31.2207 39.1387 30.77 39.26 30.198 39.26Z" fill="white"/>
</svg>
