<svg width="60" height="60" viewBox="0 0 60 60" fill="none" xmlns="http://www.w3.org/2000/svg">
<circle cx="30" cy="30" r="30" fill="#330594"/>
<line x1="41.3536" y1="18.3536" x2="15.3536" y2="44.3536" stroke="white"/>
<path d="M13.3667 22.9822C13.179 22.7796 12.8627 22.7676 12.6601 22.9553C12.4576 23.143 12.4456 23.4593 12.6333 23.6619L13.3667 22.9822ZM12.6333 23.6619L15.8858 27.1718L16.6193 26.492L13.3667 22.9822L12.6333 23.6619Z" fill="#30FF0F"/>
<path d="M24.3399 19.3668C24.5424 19.1791 24.5544 18.8627 24.3667 18.6602C24.179 18.4576 23.8627 18.4456 23.6601 18.6333L24.3399 19.3668ZM16.6181 26.5224L24.3399 19.3668L23.6601 18.6333L15.9384 25.7889L16.6181 26.5224Z" fill="#30FF0F"/>
<line x1="41.7038" y1="35.2834" x2="34.6179" y2="43.2378" stroke="#FF0000" stroke-linecap="round"/>
<line x1="42.0651" y1="42.8076" x2="34.1106" y2="35.7219" stroke="#FF0000" stroke-linecap="round"/>
</svg>
